<?xml version="1.0" encoding="UTF-8" standalone="no"?>
<!-- Created with Inkscape (http://www.inkscape.org/) -->

<svg
   width="6.3499999mm"
   height="6.3499999mm"
   viewBox="0 0 6.3499998 6.3499999"
   version="1.1"
   id="svg5"
   xml:space="preserve"
   inkscape:export-filename="shogunink.png"
   inkscape:export-xdpi="96"
   inkscape:export-ydpi="96"
   inkscape:version="1.2.2 (b0a8486541, 2022-12-01)"
   sodipodi:docname="shogunink.svg"
   xmlns:inkscape="http://www.inkscape.org/namespaces/inkscape"
   xmlns:sodipodi="http://sodipodi.sourceforge.net/DTD/sodipodi-0.dtd"
   xmlns="http://www.w3.org/2000/svg"
   xmlns:svg="http://www.w3.org/2000/svg"><sodipodi:namedview
     id="namedview7"
     pagecolor="#ffffff"
     bordercolor="#000000"
     borderopacity="0.25"
     inkscape:showpageshadow="2"
     inkscape:pageopacity="0.0"
     inkscape:pagecheckerboard="0"
     inkscape:deskcolor="#d1d1d1"
     inkscape:document-units="mm"
     showgrid="false"
     inkscape:zoom="11.214776"
     inkscape:cx="12.661867"
     inkscape:cy="28.177113"
     inkscape:window-width="1900"
     inkscape:window-height="997"
     inkscape:window-x="10"
     inkscape:window-y="44"
     inkscape:window-maximized="1"
     inkscape:current-layer="layer1" /><defs
     id="defs2" /><g
     inkscape:label="Layer 1"
     inkscape:groupmode="layer"
     id="layer1"
     transform="translate(172.41037,-284.8844)"><g
       id="g896"
       transform="matrix(0.02665511,0,0,0.02665511,-163.88639,279.44069)"><g
         id="g833"
         transform="matrix(0.5385886,0,0,0.5385886,-208.05552,323.73567)"><path
           style="fill:#000000;stroke:#000000;stroke-width:0.264583"
           d="m -47.026933,89.940378 c 14.095876,4.528476 24.267119,9.640077 33.410968,17.632642 23.4580025,21.48458 39.6564,13.6577 54.775882,0.26797 C 48.082319,101.25972 61.854373,93.320226 74.884824,89.959442 61.361853,85.892005 46.61907,78.313636 39.396906,70.227842 16.72633,51.220014 1.8579371,59.080866 -11.829228,70.368008 c -10.893391,11.1671 -23.46941,15.387774 -35.197705,19.57237 z"
           id="path224"
           sodipodi:nodetypes="ccccccc" /><path
           style="fill:#ffffff;stroke:#000000;stroke-width:0.264583"
           d="M 48.834728,89.765857 C 45.875264,87.899487 41.789281,83.659539 39.736617,79.993415 23.768777,56.46887 0.24674081,61.145811 -11.398914,79.135423 c -2.257081,4.260224 -6.895049,8.448226 -9.731637,10.839144 2.862238,2.044313 7.541945,6.370025 9.357573,10.277733 11.54736958,18.01958 34.063786,22.84208 49.793053,2.08423 2.733716,-5.288238 6.753243,-9.21892 10.814653,-12.570673 z"
           id="path448"
           sodipodi:nodetypes="ccccccc" /><path
           style="fill:#000000;stroke:#000000;stroke-width:0.264583"
           d="M 34.849607,86.897878 C 33.933201,74.218813 21.34626,68.046628 14.162271,68.876155 c 8.073789,4.649217 10.806146,8.010463 9.974158,14.288979 -2.74396,6.258985 -9.959918,6.74872 -12.704704,2.161637 C 10.572033,82.534639 10.97658,80.251978 14.973747,79.467376 10.812156,75.07283 3.364865,75.880267 -1.9616453,81.176072 -1.6392132,79.349699 -0.42497506,76.385188 0.85404952,73.337996 -11.237186,83.181366 -7.7375591,96.329387 -4.1137072,101.24696 -4.0495465,94.728676 -4.3405039,88.020717 2.3624926,85.048348 12.07774,82.865356 14.067399,92.11487 10.765317,95.158132 c -1.8317633,1.58399 -4.4440888,1.2966 -5.9205874,-0.878507 -2.5589824,8.761195 6.5686424,12.812735 9.5860384,13.904765 -2.648324,1.29214 -5.2896646,0.98528 -7.9332645,1.19572 6.7816925,4.91533 22.2492425,0.72463 25.8249265,-8.92707 -11.083271,7.07108 -17.789166,4.03471 -19.490099,-3.490774 0.112552,-4.770728 3.464449,-7.384602 6.949562,-6.975527 4.446651,0.770847 3.470782,4.600118 2.431769,6.039282 4.085996,-1.270868 9.205823,-3.81487 7.559203,-15.718915 z"
           id="path450"
           sodipodi:nodetypes="ccccccccccccccccccc" /></g><g
         id="g862"><path
           style="fill:#000000;stroke:#000000;stroke-width:0.264583"
           d="m -157.93319,290.24463 c 2.12256,-11.44239 -1.50485,-15.7234 -4.69776,-20.54558 1.26974,-6.85395 1.03996,-14.20576 -4.43594,-23.29936 7.24772,-12.94206 25.68011,-20.99924 43.17153,-18.864 -16.97902,13.33757 -37.98664,36.40199 -6.52243,49.95131 -6.98021,1.14772 -9.93246,3.42424 -9.00013,6.16627 1.28222,9.76673 0.53783,17.59598 -3.15391,22.60754 6.14548,1.95931 6.86272,3.14532 8.12143,8.71119 1.13459,13.50579 2.48204,16.34627 -1.86198,22.1417 -2.19108,0.96688 -3.5916,0.11028 -5.01073,-0.70338 2.40029,2.88636 4.74081,4.89719 7.02924,6.14501 2.30689,0.34583 4.10389,2.35184 0.318,4.48246 4.07306,7.42603 7.55814,15.3675 14.15175,20.58396 2.08397,1.6264 4.49483,3.43624 0.58877,7.26403 4.95872,4.84739 10.39306,9.23782 17.61347,11.91221 -14.32664,19.6891 -32.91586,28.08752 -49.52075,32.45033 -6.87583,0.78772 -9.92904,-0.17573 -9.46957,-3.6545 11.19649,-36.60897 6.74949,-64.59916 -7.56416,-81.97748 -14.73001,1.06721 -25.01708,5.64331 -32.32063,13.56336 -8.84018,-9.23304 -18.79412,-12.70052 -32.36223,-13.51926 -20.06564,26.79513 -13.39895,57.08645 -7.61607,81.12456 1.15168,3.09825 -0.77394,5.65767 -8.93749,4.42123 -20.95703,-4.90672 -36.10236,-14.68399 -50.31019,-32.46117 4.56496,-1.91545 8.89745,-3.4934 17.9138,-11.87105 -2.50369,-2.26851 -3.30867,-4.63015 0.30931,-7.23426 7.24355,-5.0962 10.23801,-13.21606 14.26587,-20.60055 -2.95555,-2.15544 -2.82135,-3.77455 1.04748,-4.74539 2.41075,-1.32749 4.32778,-3.73642 6.44884,-5.69846 -3.65051,2.09794 -4.69142,0.54964 -6.23644,-1.20698 -3.37933,-9.60566 -1.41606,-17.77611 0.643,-24.58791 1.11666,-1.97784 2.58044,-3.82104 7.12397,-4.46973 -5.09444,-6.30511 -3.35366,-12.97393 -3.21475,-23.63501 -1.33025,-4.58724 -6.024,-3.77477 -9.13868,-5.49731 28.354,-11.66111 15.37049,-33.17388 -6.1084,-49.23478 6.09863,-2.61835 32.87106,0.53335 42.59847,18.79954 -2.92708,6.24534 -6.06462,10.36595 -3.8605,22.68421 -4.72399,5.95072 -7.61723,12.56775 -4.59978,21.33595 0.75591,-4.68967 2.42932,-8.65931 7.03349,-10.32896 -0.52144,2.29285 -1.55908,4.41851 -0.87403,7.1021 8.47135,-8.98805 16.90515,-11.58486 25.33321,-13.20569 l -2.59443,-3.19943 c 6.62262,-3.95484 10.56092,-12.10684 13.11058,-22.43012 2.68318,7.22202 2.97512,14.11855 13.15951,22.3616 l -2.50914,3.47858 c 13.53365,1.72329 18.87228,7.79605 25.34743,13.2656 -0.0264,-2.30809 -0.20467,-4.69746 -1.24696,-7.54912 5.58444,2.35796 5.75886,6.47136 7.83793,9.96674 z"
           id="path452"
           sodipodi:nodetypes="ccccccccccccccccccccccccccccccccccccccccccccccc" /><path
           style="fill:#ffffff;stroke:#000000;stroke-width:0.264583"
           d="m -207.60384,274.91989 c 5.67938,-0.62453 9.95249,-0.39867 13.98051,-0.0246 l 1.67284,-2.7513 c -3.69079,-3.62578 -6.53118,-7.89298 -8.54046,-12.78705 -2.61505,4.4859 -4.6027,9.52164 -8.62379,12.77532 z"
           id="path456"
           sodipodi:nodetypes="cccccc" /><path
           style="fill:#ffffff;stroke:#000000;stroke-width:0.264583"
           d="m -169.1249,301.33766 c 1.90099,-1.70205 3.64174,-3.83592 4.64468,-7.95814 -4.48326,-5.50209 -10.64659,-9.46262 -16.11919,-11.88656 5.24643,3.70611 10.38455,8.64376 11.47451,19.8447 z"
           id="path458"
           sodipodi:nodetypes="cccc" /><path
           style="fill:#ffffff;stroke:#000000;stroke-width:0.264583"
           d="m -232.07864,301.46225 c -1.90099,-1.70205 -3.64174,-3.83592 -4.64468,-7.95814 4.48326,-5.50209 10.64659,-9.46262 16.11919,-11.88656 -5.24643,3.70611 -10.38455,8.64376 -11.47451,19.8447 z"
           id="path458-3"
           sodipodi:nodetypes="cccc" /><path
           style="fill:#ffffff;stroke:#000000;stroke-width:0.264583"
           d="m -191.82173,311.13969 c 4.10795,-0.43288 7.91734,-1.35105 10.46948,-2.87993 1.08443,-15.30913 -4.68758,-24.00533 -19.08468,-30.28901 -14.1188,5.73429 -20.55634,15.45837 -18.7811,30.74667 3.54482,1.53685 6.60294,2.30222 9.85528,2.4514 0.1314,-9.08757 1.47777,-18.37959 8.85075,-27.91392 5.61697,6.54458 9.21459,18.25288 8.69027,27.88479 z"
           id="path556"
           sodipodi:nodetypes="ccccccc" /><path
           style="fill:#ffffff;stroke:#000000;stroke-width:0.264583"
           d="m -239.68376,308.34928 c -1.14411,-2.70869 -2.48677,-4.98465 -1.74431,-11.80516 -8.02572,-5.43045 -9.53681,-20.74601 0.0457,-28.33702 -1.81945,-8.22046 -0.53156,-16.62387 4.14301,-21.88927 -7.61817,-10.02621 -20.43805,-15.06035 -33.31126,-16.52133 13.47909,8.11277 32.07658,32.56157 7.07649,46.50795 5.04396,1.32337 5.86994,3.06462 4.86058,9.38918 -0.79837,8.78245 -0.47218,14.16637 3.62217,20.83155 7.01949,0.0986 12.63416,0.57054 15.30762,1.8241 z"
           id="path610"
           sodipodi:nodetypes="ccccccccc" /><path
           style="fill:#ffffff;stroke:#000000;stroke-width:0.264583"
           d="m -161.37273,308.38093 c 1.14411,-2.70869 2.48677,-4.98465 1.74431,-11.80516 8.02572,-5.43045 9.53681,-20.74601 -0.0457,-28.33702 1.81945,-8.22046 0.53156,-16.62387 -4.14301,-21.88927 7.61817,-10.02621 20.43805,-15.06035 33.31126,-16.52133 -13.47909,8.11276 -32.07658,32.56156 -7.07649,46.50795 -5.04396,1.32337 -5.86994,3.06462 -4.86058,9.38918 0.79837,8.78245 0.47218,14.16637 -3.62217,20.83155 -7.01949,0.0986 -12.63416,0.57054 -15.30762,1.8241 z"
           id="path610-7"
           sodipodi:nodetypes="ccccccccc" /><path
           style="fill:#000000;stroke:#000000;stroke-width:0.264583"
           d="m -241.61079,306.85134 c -0.56114,-3.02301 -1.12399,-6.04353 -0.98919,-10.0752 -9.4563,-8.42344 -7.64394,-21.41137 0.13954,-29.08931 -2.51092,-7.75851 0.54257,-17.1454 3.33364,-21.27772 -4.42735,-6.0614 -10.54162,-11.02083 -20.07011,-12.86817 17.09478,14.96449 14.17943,32.70338 3.40053,42.43928 1.89594,2.01969 1.39989,7.48183 2.68,10.89364 1.03723,3.63873 2.67778,7.26501 5.80371,10.33346 0.89189,4.36418 3.05555,7.27911 5.70188,9.64402 z"
           id="path612"
           sodipodi:nodetypes="ccccccccc" /><path
           style="fill:#000000;stroke:#000000;stroke-width:0.264583"
           d="m -159.39121,306.90086 c 0.56114,-3.02301 1.12399,-6.04353 0.98919,-10.0752 9.4563,-8.42344 7.64394,-21.41137 -0.13954,-29.08931 2.51092,-7.75851 -0.54257,-17.1454 -3.33364,-21.27772 4.42735,-6.0614 10.54162,-11.02083 20.07011,-12.86817 -17.09478,14.96449 -14.17943,32.70338 -3.40053,42.43928 -1.89594,2.01969 -1.39989,7.48183 -2.68,10.89364 -1.03723,3.63873 -2.67778,7.26501 -5.80371,10.33346 -0.89189,4.36418 -3.05555,7.27911 -5.70188,9.64402 z"
           id="path612-6"
           sodipodi:nodetypes="ccccccccc" /><path
           style="fill:#ffffff;stroke:#000000;stroke-width:0.264583"
           d="m -162.14464,293.0648 c 2.25901,8.31552 -0.0646,15.04455 -5.09956,20.09894 -9.01661,10.90877 -54.75633,14.44849 -68.46674,-1.90754 -3.40859,-4.54151 -4.95146,-10.53492 -3.64793,-18.2605 9.85118,30.78497 74.14533,25.70709 77.21423,0.0691 z"
           id="path703"
           sodipodi:nodetypes="ccccc" /><path
           style="fill:#ffffff;stroke:#000000;stroke-width:0.264583"
           d="m -154.82142,330.40312 c -2.93586,-4.09195 -5.01203,-7.85311 -13.67967,-14.15056 -8.96496,8.6315 -46.40049,12.51735 -64.31509,0.13678 -6.52818,4.67269 -10.4277,9.60006 -13.60733,14.05461 4.64033,-2.63593 9.40853,-5.37399 13.5259,-6.38057 6.62121,-1.4412 10.35152,2.45958 6.00558,6.71001 12.74613,0.9283 20.85279,4.57011 26.29478,9.29916 6.18878,-5.93122 17.63922,-8.60939 26.52304,-9.13234 -3.36903,-3.07601 -3.04113,-7.55554 4.78826,-7.23343 6.58737,1.82636 10.28881,4.31584 14.46453,6.69634 z"
           id="path705"
           sodipodi:nodetypes="cccccccccc" /><path
           style="fill:#000000;stroke:#000000;stroke-width:0.264583"
           d="m -200.33862,334.18494 c 2.62179,-1.57844 6.11217,-4.76854 9.40203,-7.58658 l -2.70432,3.5267 c 3.90503,-0.90493 7.42614,-2.63432 10.43627,-4.49027 l -2.33804,2.24605 7.51611,-1.1898 c -1.24546,-0.86171 -2.30433,-1.46484 -4.11046,-3.10357 -9.15553,2.83474 -23.2779,4.06361 -36.67781,-0.0201 -0.99249,0.99858 -1.80867,2.02381 -4.00513,2.84039 l 7.36341,1.57043 -2.22909,-2.46563 c 2.94078,1.75507 5.63841,3.59812 10.24317,4.75115 l -2.95386,-3.80261 c 3.27152,2.55656 5.20415,4.81488 10.05772,7.72384 z"
           id="path707"
           sodipodi:nodetypes="cccccccccccccc" /><path
           style="fill:#ffffff;stroke:#000000;stroke-width:0.264583"
           d="m -156.24571,325.9315 c 10.00152,-1.86844 12.11294,2.47371 15.15259,6.49682 2.22445,2.58402 4.32349,1.66221 4.52247,-1.78539 -0.21029,-5.33535 -0.47638,-10.82991 -1.19512,-16.65423 -0.6491,-3.47935 -2.9879,-4.51221 -6.42941,-5.17292 -5.75389,-0.65339 -18.09595,-0.94377 -19.07546,2.54176 6.27819,-1.38358 22.05403,-2.33017 23.47344,3.4248 1.35028,7.05685 1.12353,9.94049 0.69202,13.78387 -4.28983,-5.2663 -10.36305,-8.27922 -14.8595,-10.12135 2.73804,1.68898 5.39441,3.46354 7.52074,5.7934 -3.43948,-0.18389 -6.5183,-0.74875 -11.01489,0.18401 z"
           id="path709"
           sodipodi:nodetypes="cccccccccccc" /><path
           style="fill:#ffffff;stroke:#000000;stroke-width:0.264583"
           d="m -244.94556,326.04906 c -10.00152,-1.86844 -12.11294,2.47371 -15.15259,6.49682 -2.22445,2.58402 -4.32349,1.66221 -4.52247,-1.78539 0.21029,-5.33535 0.47638,-10.82991 1.19512,-16.65423 0.6491,-3.47935 2.9879,-4.51221 6.42941,-5.17292 5.75389,-0.65339 18.09595,-0.94377 19.07546,2.54176 -6.27819,-1.38358 -22.05403,-2.33017 -23.47344,3.4248 -1.35028,7.05685 -1.12353,9.94049 -0.69202,13.78387 4.28983,-5.2663 10.36305,-8.27922 14.8595,-10.12135 -2.73804,1.68898 -5.39441,3.46354 -7.52074,5.7934 3.43948,-0.18389 6.5183,-0.74875 11.01489,0.18401 z"
           id="path709-5"
           sodipodi:nodetypes="cccccccccccc" /><path
           style="fill:#ffffff;stroke:#000000;stroke-width:0.264583"
           d="m -135.88594,345.15795 c -4.65162,-3.57704 -9.90193,-8.30088 -12.63886,-17.00035 -1.93962,-0.44121 -3.53406,-0.99599 -6.96044,-0.94806 2.01201,2.08894 2.89511,4.14133 3.32001,6.1789 -5.82321,-2.59903 -10.85939,-6.27403 -17.5038,-7.75038 9.54351,8.22853 14.67177,17.95597 18.39516,28.16035 7.60021,-2.85946 11.33898,-5.11284 15.38793,-8.64046 z"
           id="path733"
           sodipodi:nodetypes="ccccccc" /><path
           style="fill:#000000;stroke:#000000;stroke-width:0.264583"
           d="m -150.17692,351.90723 c 4.12371,-1.98309 8.23246,-3.99833 12.08533,-6.56391 -3.71812,-3.07048 -8.85527,-8.42073 -10.986,-15.98043 -1.37001,2.28334 -1.20498,4.9424 -1.02727,7.60458 -2.42765,-2.0178 -4.8152,-4.06708 -9.76615,-4.09114 3.18235,3.49205 5.50441,5.17785 8.19535,13.73295 0.42407,-1.39206 -0.0294,-3.4223 -0.26981,-5.29755 0.95434,2.19098 1.71875,5.08001 1.76855,10.5955 z"
           id="path735"
           sodipodi:nodetypes="cccccccc" /><path
           style="fill:#ffffff;stroke:#000000;stroke-width:0.264583"
           d="m -265.14027,345.21439 c 4.65162,-3.57704 9.90193,-8.30088 12.63886,-17.00035 1.93962,-0.44121 3.53406,-0.99599 6.96044,-0.94806 -2.01201,2.08894 -2.89511,4.14133 -3.32001,6.1789 5.82321,-2.59903 10.85939,-6.27403 17.5038,-7.75038 -9.54351,8.22853 -14.67177,17.95597 -18.39516,28.16035 -7.60021,-2.85946 -11.33898,-5.11284 -15.38793,-8.64046 z"
           id="path733-3"
           sodipodi:nodetypes="ccccccc" /><path
           style="fill:#000000;stroke:#000000;stroke-width:0.264583"
           d="m -250.84929,351.96367 c -4.12371,-1.98309 -8.23246,-3.99833 -12.08533,-6.56391 3.71812,-3.07048 8.85527,-8.42073 10.986,-15.98043 1.37001,2.28334 1.20498,4.9424 1.02727,7.60458 2.42765,-2.0178 4.8152,-4.06708 9.76615,-4.09114 -3.18235,3.49205 -5.50441,5.17785 -8.19535,13.73295 -0.42407,-1.39206 0.0294,-3.4223 0.26981,-5.29755 -0.95434,2.19098 -1.71875,5.08001 -1.76855,10.5955 z"
           id="path735-5"
           sodipodi:nodetypes="cccccccc" /><path
           style="fill:#ffffff;stroke:#000000;stroke-width:0.264583"
           d="m -120.20655,371.09521 c -8.29625,6.54061 -16.97174,11.04129 -29.26408,15.04373 0.6292,-11.09791 0.91837,-21.95219 -1.48377,-30.87816 7.72661,-1.18943 10.16814,-4.4956 14.87149,-6.89588 4.03451,9.7059 9.54509,19.82477 15.87636,22.73031 z"
           id="path764"
           sodipodi:nodetypes="ccccc" /><path
           style="fill:#000000;stroke:#000000;stroke-width:0.264583"
           d="m -147.63763,383.62006 c 10.04307,-3.16676 17.00354,-7.8979 23.87834,-12.67251 -5.66137,-4.77481 -9.96056,-11.28244 -12.31715,-20.26123 -3.62436,2.53683 -7.61223,5.06497 -12.68311,7.56722 6.60925,9.24748 6.72048,20.59764 1.12192,25.36652 z"
           id="path766"
           sodipodi:nodetypes="ccccc" /><path
           style="fill:#ffffff;stroke:#000000;stroke-width:0.264583"
           d="m -280.84488,370.92712 c 8.29625,6.54061 16.97175,11.04129 29.26409,15.04373 -0.6292,-11.09791 -0.91837,-21.95219 1.48377,-30.87816 -7.72661,-1.18943 -10.16814,-4.4956 -14.87149,-6.89588 -4.03452,9.7059 -9.5451,19.82477 -15.87637,22.73031 z"
           id="path764-6"
           sodipodi:nodetypes="ccccc" /><path
           style="fill:#000000;stroke:#000000;stroke-width:0.264583"
           d="m -253.41379,383.45197 c -10.04307,-3.16676 -17.00355,-7.8979 -23.87835,-12.67251 5.66137,-4.77481 9.96056,-11.28244 12.31716,-20.26123 3.62436,2.53683 7.61223,5.06497 12.68311,7.56722 -6.60925,9.24748 -6.72048,20.59764 -1.12192,25.36652 z"
           id="path766-2"
           sodipodi:nodetypes="ccccc" /><path
           style="fill:#000000;stroke:#000000;stroke-width:0.264583"
           d="m -175.60553,329.30504 c -7.29112,1.58714 -17.17968,3.39347 -24.93805,8.95311 -6.01817,-4.35632 -13.68612,-7.25373 -25.07768,-9.0302 l 0.42267,-0.89367 c 10.14871,1.71123 18.65115,4.12614 24.68838,8.87337 6.91832,-5.48659 18.78886,-7.76523 24.5347,-8.73128 z"
           id="path795"
           sodipodi:nodetypes="ccccccc" /><path
           style="fill:#ffffff;stroke:#000000;stroke-width:0.264583"
           d="m -122.06763,375.68544 c 4.27521,6.79109 10.18343,10.05482 16.17629,12.73395 -12.5824,14.33009 -34.03572,26.51894 -50.5728,28.83578 3.9348,-8.75141 6.02395,-18.96868 6.67405,-29.77766 9.60311,-1.47054 18.58418,-5.3975 27.72246,-11.79207 z"
           id="path797"
           sodipodi:nodetypes="ccccc" /><path
           style="fill:#000000;stroke:#000000;stroke-width:0.264583"
           d="m -151.36571,414.35017 c 21.70362,-10.14533 24.21201,-10.49266 35.31306,-24.7563 -2.18466,3.17259 -3.96312,6.42051 -6.81045,9.82702 4.47019,-2.84801 8.70063,-6.436 12.90961,-10.09026 -5.22199,-3.16585 -10.3384,-6.41544 -12.98114,-11.62711 -7.6443,6.23851 -15.00026,9.67869 -23.25584,11.66672 8.44296,0.5465 5.89818,8.50733 3.61035,13.85328 2.29405,-2.4681 4.59979,-4.72311 6.83379,-8.28585 -0.91451,3.79916 -5.50461,9.88632 -15.61938,19.4125 z"
           id="path799"
           sodipodi:nodetypes="ccccccccc" /><path
           style="fill:#ffffff;stroke:#000000;stroke-width:0.264583"
           d="m -278.93501,375.89786 c -4.27521,6.79109 -10.18343,10.05482 -16.17628,12.73395 12.58239,14.33009 34.03571,26.51894 50.57279,28.83578 -3.9348,-8.75141 -6.02395,-18.96868 -6.67405,-29.77766 -9.60311,-1.47054 -18.58418,-5.3975 -27.72246,-11.79207 z"
           id="path797-9"
           sodipodi:nodetypes="ccccc" /><path
           style="fill:#000000;stroke:#000000;stroke-width:0.264583"
           d="m -249.63693,414.56259 c -21.70362,-10.14533 -24.21201,-10.49266 -35.31306,-24.7563 2.18466,3.17259 3.96312,6.42051 6.81045,9.82702 -4.47019,-2.84801 -8.70063,-6.436 -12.9096,-10.09026 5.22198,-3.16585 10.33839,-6.41544 12.98113,-11.62711 7.6443,6.23851 15.00026,9.67869 23.25584,11.66672 -8.44296,0.5465 -5.89818,8.50733 -3.61035,13.85328 -2.29405,-2.4681 -4.59979,-4.72311 -6.83379,-8.28585 0.91451,3.79916 5.50461,9.88632 15.61938,19.4125 z"
           id="path799-1"
           sodipodi:nodetypes="ccccccccc" /></g></g></g></svg>
